<svg width="52" height="52" viewBox="0 0 52 52" fill="none" xmlns="http://www.w3.org/2000/svg">
<rect width="52" height="52" rx="12" fill="#FFF2F0"/>
<path fill-rule="evenodd" clip-rule="evenodd" d="M8 21.4765C8 20.4824 8.80589 19.6765 9.8 19.6765H27.8C28.7941 19.6765 29.6 20.4824 29.6 21.4765V31.3765C29.6 32.3706 28.7941 33.1765 27.8 33.1765H21.5H19.3768C19.0017 33.1765 18.6359 33.2937 18.3306 33.5118L13.2116 37.1683C12.9137 37.381 12.5 37.1681 12.5 36.8021V34.9765C12.5 33.9824 11.6941 33.1765 10.7 33.1765H9.8C8.80589 33.1765 8 32.3706 8 31.3765V21.4765ZM9.8 22.1515C9.8 21.7787 10.1022 21.4765 10.475 21.4765H22.625C22.9978 21.4765 23.3 21.7787 23.3 22.1515C23.3 22.5243 22.9978 22.8265 22.625 22.8265H10.475C10.1022 22.8265 9.8 22.5243 9.8 22.1515ZM10.475 24.6265C10.1022 24.6265 9.8 24.9287 9.8 25.3015C9.8 25.6743 10.1022 25.9765 10.475 25.9765H16.325C16.6978 25.9765 17 25.6743 17 25.3015C17 24.9287 16.6978 24.6265 16.325 24.6265H10.475Z" fill="#FE7B67"/>
<path d="M42.2 13.6015C43.5669 13.6015 44.675 14.7096 44.675 16.0765V25.9765C44.675 27.3434 43.5669 28.4515 42.2 28.4515H41.3C40.6787 28.4515 40.175 28.9552 40.175 29.5765V31.4021C40.175 32.3171 39.1407 32.8494 38.3961 32.3175L33.2771 28.661C33.0863 28.5248 32.8576 28.4515 32.6232 28.4515H30.5H24.2C22.8331 28.4515 21.725 27.3434 21.725 25.9765V16.0765C21.725 14.7096 22.8331 13.6015 24.2 13.6015H42.2Z" fill="#FE7B67" stroke="#FFF2F0" stroke-width="1.35"/>
<rect width="13.5" height="1.35" rx="0.675" transform="matrix(-1 0 0 1 42.2 16.0764)" fill="white"/>
<rect width="7.2" height="1.35" rx="0.675" transform="matrix(-1 0 0 1 42.2 19.2264)" fill="white"/>
</svg>
