<svg width="52" height="52" viewBox="0 0 52 52" fill="none" xmlns="http://www.w3.org/2000/svg">
<rect width="52" height="52" rx="12" fill="#FFF6E7"/>
<path d="M10 15C10 12.7909 11.7909 11 14 11H38C40.2091 11 42 12.7909 42 15V18C42 18.5523 41.5523 19 41 19H11C10.4477 19 10 18.5523 10 18V15Z" fill="#FFD389"/>
<path d="M17 9C17 8.44772 17.4477 8 18 8C18.5523 8 19 8.44772 19 9V11H17V9Z" fill="#FFD389"/>
<path d="M35 9C35 8.44772 35.4477 8 36 8C36.5523 8 37 8.44772 37 9V11H35V9Z" fill="#FFD389"/>
<path fill-rule="evenodd" clip-rule="evenodd" d="M11 21C10.4477 21 10 21.4477 10 22V39C10 41.2091 11.7909 43 14 43H38C40.2091 43 42 41.2091 42 39V22C42 21.4477 41.5523 21 41 21H11ZM32.7537 27.6573C33.1167 27.241 33.0735 26.6093 32.6573 26.2463C32.241 25.8833 31.6093 25.9265 31.2463 26.3427L25.0845 33.4083L21.6562 30.4272C21.2394 30.0648 20.6078 30.1089 20.2454 30.5256C19.883 30.9424 19.9271 31.574 20.3438 31.9364L24.5256 35.5728C24.942 35.9348 25.5729 35.8913 25.9355 35.4754L32.7537 27.6573Z" fill="#FFD389"/>
</svg>
