<svg width="54" height="53" viewBox="0 0 54 53" fill="none" xmlns="http://www.w3.org/2000/svg">
<rect width="52" height="52" rx="12" fill="#EAF9EF"/>
<path d="M22.3911 17.236L31.1796 11.5797C34.8199 9.23687 39.6702 10.2886 42.0131 13.9289C44.356 17.5692 43.3042 22.4196 39.6639 24.7624L30.8754 30.4187L22.3911 17.236Z" fill="#5FE48C"/>
<path d="M9.78879 34.6684C7.44591 31.0281 8.49768 26.1777 12.138 23.8349L20.9264 18.1787L29.4108 31.3613L20.6223 37.0176C16.982 39.3604 12.1317 38.3087 9.78879 34.6684Z" fill="#5FE48C"/>
<path d="M37.7272 26.8235C36.9003 26.0333 35.9258 25.4138 34.8594 25.0002C33.7931 24.5867 32.6557 24.3872 31.5123 24.4132C30.3688 24.4392 29.2417 24.6902 28.1953 25.1518C27.1488 25.6134 26.2035 26.2766 25.4134 27.1035C24.6232 27.9304 24.0037 28.9049 23.5901 29.9712C23.1766 31.0376 22.9771 32.1749 23.0031 33.3184C23.0291 34.4618 23.2801 35.5889 23.7417 36.6354C24.2033 37.6818 24.8665 38.6271 25.6934 39.4173L31.7103 33.1204L37.7272 26.8235Z" fill="#5FE48C" stroke="#EAF9EF" stroke-width="1.74188"/>
<path d="M37.7272 26.8235C38.5541 27.6136 39.2173 28.5589 39.6789 29.6054C40.1405 30.6518 40.3915 31.7789 40.4175 32.9224C40.4435 34.0658 40.244 35.2032 39.8304 36.2695C39.4169 37.3359 38.7973 38.3104 38.0072 39.1373C37.217 39.9642 36.2718 40.6274 35.2253 41.089C34.1788 41.5506 33.0517 41.8016 31.9083 41.8276C30.7648 41.8536 29.6275 41.6541 28.5611 41.2405C27.4948 40.827 26.5203 40.2074 25.6934 39.4173L31.7103 33.1204L37.7272 26.8235Z" fill="#5FE48C" stroke="#EAF9EF" stroke-width="1.74188"/>
</svg>
